<?xml version="1.0" encoding="UTF-8" standalone="no"?>
<svg
   xmlns:dc="http://purl.org/dc/elements/1.1/"
   xmlns:cc="http://creativecommons.org/ns#"
   xmlns:rdf="http://www.w3.org/1999/02/22-rdf-syntax-ns#"
   xmlns:svg="http://www.w3.org/2000/svg"
   xmlns="http://www.w3.org/2000/svg"
   enable-background="new"
   version="1.1"
   id="svg2"
   height="297mm"
   width="210mm">
  <defs
     id="defs4">
    <filter
       id="filter4955"
       style="color-interpolation-filters:sRGB">
      <feBlend
         id="feBlend4957"
         in2="BackgroundImage"
         mode="lighten" />
    </filter>
  </defs>
  <metadata
     id="metadata7">
    <rdf:RDF>
      <cc:Work
         rdf:about="">
        <dc:format>image/svg+xml</dc:format>
        <dc:type
           rdf:resource="http://purl.org/dc/dcmitype/StillImage" />
        <dc:title></dc:title>
      </cc:Work>
    </rdf:RDF>
  </metadata>
  <g
     style="filter:url(#filter4955)"
     id="layer1">
    <rect
       style="fill:#aa0000;fill-rule:evenodd;stroke:none"
       id="rect3765"
       width="100"
       height="300"
       x="2362.6719"
       y="-92.436699" />
    <rect
       transform="scale(-1,1)"
       y="306.93939"
       x="-2575.8638"
       height="300"
       width="300"
       id="rect2985"
       style="fill:#0000ff;fill-rule:evenodd;stroke:none" />
    <rect
       transform="matrix(-1,0,0.49999826,0.86602641,0,0)"
       style="fill:#ffff00;fill-opacity:1;fill-rule:evenodd;stroke:none"
       id="rect3757"
       width="100"
       height="346.40976"
       x="-2212.0508"
       y="354.4227" />
    <rect
       style="fill:#0000ff;fill-rule:evenodd;stroke:none"
       id="rect3759"
       width="300"
       height="300"
       x="2262.6719"
       y="-92.436699" />
    <rect
       transform="matrix(1,0,-0.49999826,0.86602641,0,0)"
       y="-106.73658"
       x="2395.9058"
       height="346.40976"
       width="100"
       id="rect3761"
       style="fill:#ff00ff;fill-rule:evenodd;stroke:none" />
    <rect
       transform="matrix(1,0,-0.27444447,0.96160295,0,0)"
       style="fill:#ffff00;fill-rule:evenodd;stroke:none"
       id="rect3763"
       width="100"
       height="311.97906"
       x="2422.032"
       y="-96.127739" />
    <rect
       y="635.42438"
       x="2275.4585"
       height="300"
       width="300"
       id="rect4139"
       style="fill:#0000ff;fill-rule:evenodd;stroke:none" />
    <rect
       y="660.79706"
       x="2642.5527"
       height="311.97906"
       width="100"
       id="rect4141"
       style="fill:#ffff00;fill-rule:evenodd;stroke:none"
       transform="matrix(1,0,-0.27444447,0.96160295,0,0)" />
    <rect
       y="975.64594"
       x="2275.4585"
       height="300"
       width="300"
       id="rect4143"
       style="fill:#0000ff;fill-rule:evenodd;stroke:none" />
    <rect
       y="975.64594"
       x="2375.4573"
       height="300"
       width="100"
       id="rect4145"
       style="fill:#ffff00;fill-rule:evenodd;stroke:none"
       transform="matrix(1,0,1.1470456e-6,1,0,0)" />
    <rect
       style="fill:#0000ff;fill-rule:evenodd;stroke:none"
       id="rect4147"
       width="300"
       height="300"
       x="2286.231"
       y="1304.6206" />
    <g
       transform="translate(1839.2582,221.09443)"
       style="fill:#ffff00;fill-opacity:1"
       id="g4153">
      <rect
         y="1183.5261"
         x="546.97052"
         height="200"
         width="100"
         id="rect4149"
         style="fill:#ffff00;fill-opacity:1;fill-rule:evenodd;stroke:none"
         transform="matrix(1,0,1.7205684e-6,1,0,0)" />
      <rect
         transform="matrix(0,-1,1,-1.7205684e-6,0,0)"
         style="fill:#ffff00;fill-opacity:1;fill-rule:evenodd;stroke:none"
         id="rect4151"
         width="100"
         height="200"
         x="-1283.5271"
         y="446.97272" />
    </g>
    <g
       transform="matrix(0.4186047,0,0,0.4186047,-120.14116,-241.50313)"
       id="g4805">
      <rect
         transform="scale(-1,1)"
         y="726.46997"
         x="-777.23047"
         height="300"
         width="300"
         id="rect4157"
         style="fill:#0000ff;fill-rule:evenodd;stroke:none" />
      <rect
         transform="matrix(-1,0,0.49999826,0.86602641,0,0)"
         style="fill:#ffff00;fill-opacity:1;fill-rule:evenodd;stroke:none"
         id="rect4159"
         width="100"
         height="346.40976"
         x="-171.20264"
         y="838.85431" />
    </g>
    <g
       transform="matrix(0.4186047,0,0,0.4186047,294.44711,-379.00847)"
       id="g4809">
      <rect
         y="1054.955"
         x="476.82538"
         height="300"
         width="300"
         id="rect4161"
         style="fill:#0000ff;fill-rule:evenodd;stroke:none" />
      <rect
         y="1097.0796"
         x="963.65479"
         height="311.97906"
         width="100"
         id="rect4163"
         style="fill:#ffff00;fill-rule:evenodd;stroke:none"
         transform="matrix(1,0,-0.27444447,0.96160295,0,0)" />
    </g>
    <g
       transform="matrix(0.4186047,0,0,0.4186047,156.30753,-107.00815)"
       id="g4813">
      <rect
         y="1395.1765"
         x="476.82538"
         height="300"
         width="300"
         id="rect4165"
         style="fill:#0000ff;fill-rule:evenodd;stroke:none" />
      <rect
         y="1395.1765"
         x="576.82361"
         height="300"
         width="100"
         id="rect4167"
         style="fill:#ffff00;fill-rule:evenodd;stroke:none"
         transform="matrix(1,0,1.1470456e-6,1,0,0)" />
    </g>
    <g
       transform="matrix(0.4186047,0,0,0.4186047,13.658621,-244.71847)"
       id="g4817">
      <rect
         style="fill:#0000ff;fill-rule:evenodd;stroke:none"
         id="rect4169"
         width="300"
         height="300"
         x="487.59772"
         y="1724.1511" />
      <g
         transform="translate(40.625001,640.625)"
         style="fill:#ffff00;fill-opacity:1"
         id="g4171">
        <rect
           y="1183.5261"
           x="546.97052"
           height="200"
           width="100"
           id="rect4173"
           style="fill:#ffff00;fill-opacity:1;fill-rule:evenodd;stroke:none"
           transform="matrix(1,0,1.7205684e-6,1,0,0)" />
        <rect
           transform="matrix(0,-1,1,-1.7205684e-6,0,0)"
           style="fill:#ffff00;fill-opacity:1;fill-rule:evenodd;stroke:none"
           id="rect4175"
           width="100"
           height="200"
           x="-1283.5271"
           y="446.97272" />
      </g>
    </g>
    <g
       transform="matrix(-0.4186047,0,0,0.4186047,543.12165,-241.50312)"
       id="g4823">
      <rect
         style="fill:#0000ff;fill-rule:evenodd;stroke:none"
         id="rect4825"
         width="300"
         height="300"
         x="-777.23047"
         y="726.46997"
         transform="scale(-1,1)" />
      <rect
         y="838.85431"
         x="-171.20264"
         height="346.40976"
         width="100"
         id="rect4827"
         style="fill:#ffff00;fill-opacity:1;fill-rule:evenodd;stroke:none"
         transform="matrix(-1,0,0.49999826,0.86602641,0,0)" />
    </g>
    <g
       transform="matrix(-0.4186047,0,0,0.4186047,681.09163,-379.00847)"
       id="g4829">
      <rect
         style="fill:#0000ff;fill-rule:evenodd;stroke:none"
         id="rect4831"
         width="300"
         height="300"
         x="476.82538"
         y="1054.955" />
      <rect
         transform="matrix(1,0,-0.27444447,0.96160295,0,0)"
         style="fill:#ffff00;fill-rule:evenodd;stroke:none"
         id="rect4833"
         width="100"
         height="311.97906"
         x="963.65479"
         y="1097.0796" />
    </g>
    <g
       transform="matrix(-0.4186047,0,0,0.4186047,409.32186,-244.71847)"
       id="g4841">
      <rect
         y="1724.1511"
         x="487.59772"
         height="300"
         width="300"
         id="rect4843"
         style="fill:#0000ff;fill-rule:evenodd;stroke:none" />
      <g
         id="g4845"
         style="fill:#ffff00;fill-opacity:1"
         transform="translate(40.625001,640.625)">
        <rect
           transform="matrix(1,0,1.7205684e-6,1,0,0)"
           style="fill:#ffff00;fill-opacity:1;fill-rule:evenodd;stroke:none"
           id="rect4847"
           width="100"
           height="200"
           x="546.97052"
           y="1183.5261" />
        <rect
           y="446.97272"
           x="-1283.5271"
           height="200"
           width="100"
           id="rect4849"
           style="fill:#ffff00;fill-opacity:1;fill-rule:evenodd;stroke:none"
           transform="matrix(0,-1,1,-1.7205684e-6,0,0)" />
      </g>
    </g>
    <g
       id="g4851"
       transform="matrix(0,-0.4186047,0.4186047,0,189.94468,526.09249)">
      <rect
         transform="scale(-1,1)"
         y="726.46997"
         x="-777.23047"
         height="300"
         width="300"
         id="rect4853"
         style="fill:#0000ff;fill-rule:evenodd;stroke:none" />
      <rect
         transform="matrix(-1,0,0.49999826,0.86602641,0,0)"
         style="fill:#ffff00;fill-opacity:1;fill-rule:evenodd;stroke:none"
         id="rect4855"
         width="100"
         height="346.40976"
         x="-171.20264"
         y="838.85431" />
    </g>
    <g
       id="g4857"
       transform="matrix(-0.4186047,0,0,-0.4186047,404.81253,906.07027)">
      <rect
         y="1054.955"
         x="476.82538"
         height="300"
         width="300"
         id="rect4859"
         style="fill:#0000ff;fill-rule:evenodd;stroke:none" />
      <rect
         y="1097.0796"
         x="963.65479"
         height="311.97906"
         width="100"
         id="rect4861"
         style="fill:#ffff00;fill-rule:evenodd;stroke:none"
         transform="matrix(1,0,-0.27444447,0.96160295,0,0)" />
    </g>
    <g
       id="g4863"
       transform="matrix(0,-0.4186047,0.4186047,0,-89.979009,802.20206)">
      <rect
         y="1395.1765"
         x="476.82538"
         height="300"
         width="300"
         id="rect4865"
         style="fill:#0000ff;fill-rule:evenodd;stroke:none" />
      <rect
         y="1395.1765"
         x="576.82361"
         height="300"
         width="100"
         id="rect4867"
         style="fill:#ffff00;fill-rule:evenodd;stroke:none"
         transform="matrix(1,0,1.1470456e-6,1,0,0)" />
    </g>
    <g
       id="g4869"
       transform="matrix(-0.4186047,0,0,-0.4186047,409.32186,1462.478)">
      <rect
         style="fill:#0000ff;fill-rule:evenodd;stroke:none"
         id="rect4871"
         width="300"
         height="300"
         x="487.59772"
         y="1724.1511" />
      <g
         transform="translate(40.625001,640.625)"
         style="fill:#ffff00;fill-opacity:1"
         id="g4873">
        <rect
           y="1183.5261"
           x="546.97052"
           height="200"
           width="100"
           id="rect4875"
           style="fill:#ffff00;fill-opacity:1;fill-rule:evenodd;stroke:none"
           transform="matrix(1,0,1.7205684e-6,1,0,0)" />
        <rect
           transform="matrix(0,-1,1,-1.7205684e-6,0,0)"
           style="fill:#ffff00;fill-opacity:1;fill-rule:evenodd;stroke:none"
           id="rect4877"
           width="100"
           height="200"
           x="-1283.5271"
           y="446.97272" />
      </g>
    </g>
    <g
       transform="matrix(0,-0.4186047,-0.4186047,0,785.59404,526.09249)"
       id="g4879">
      <rect
         style="fill:#0000ff;fill-rule:evenodd;stroke:none"
         id="rect4881"
         width="300"
         height="300"
         x="-777.23047"
         y="726.46997"
         transform="scale(-1,1)" />
      <rect
         y="838.85431"
         x="-171.20264"
         height="346.40976"
         width="100"
         id="rect4883"
         style="fill:#ffff00;fill-opacity:1;fill-rule:evenodd;stroke:none"
         transform="matrix(-1,0,0.49999826,0.86602641,0,0)" />
    </g>
    <g
       transform="matrix(0.4186047,0,0,-0.4186047,18.167971,906.07027)"
       id="g4885">
      <rect
         style="fill:#0000ff;fill-rule:evenodd;stroke:none"
         id="rect4887"
         width="300"
         height="300"
         x="476.82538"
         y="1054.955" />
      <rect
         transform="matrix(1,0,-0.27444447,0.96160295,0,0)"
         style="fill:#ffff00;fill-rule:evenodd;stroke:none"
         id="rect4889"
         width="100"
         height="311.97906"
         x="963.65479"
         y="1097.0796" />
    </g>
    <g
       transform="matrix(0.4186047,0,0,-0.4186047,13.658621,1462.478)"
       id="g4897">
      <rect
         y="1724.1511"
         x="487.59772"
         height="300"
         width="300"
         id="rect4899"
         style="fill:#0000ff;fill-rule:evenodd;stroke:none" />
      <g
         id="g4901"
         style="fill:#ffff00;fill-opacity:1"
         transform="translate(40.625001,640.625)">
        <rect
           transform="matrix(1,0,1.7205684e-6,1,0,0)"
           style="fill:#ffff00;fill-opacity:1;fill-rule:evenodd;stroke:none"
           id="rect4903"
           width="100"
           height="200"
           x="546.97052"
           y="1183.5261" />
        <rect
           y="446.97272"
           x="-1283.5271"
           height="200"
           width="100"
           id="rect4905"
           style="fill:#ffff00;fill-opacity:1;fill-rule:evenodd;stroke:none"
           transform="matrix(0,-1,1,-1.7205684e-6,0,0)" />
      </g>
    </g>
    <g
       id="g4919"
       transform="matrix(0,-0.4186047,0.4186047,0,-361.97934,525.92296)">
      <rect
         style="fill:#0000ff;fill-rule:evenodd;stroke:none"
         id="rect4921"
         width="300"
         height="300"
         x="476.82538"
         y="1054.955" />
      <rect
         transform="matrix(1,0,-0.27444447,0.96160295,0,0)"
         style="fill:#ffff00;fill-rule:evenodd;stroke:none"
         id="rect4923"
         width="100"
         height="311.97906"
         x="963.65479"
         y="1097.0796" />
    </g>
    <g
       id="g4925"
       transform="matrix(0,0.4186047,0.4186047,0,-85.700229,139.27838)">
      <rect
         y="1054.955"
         x="476.82538"
         height="300"
         width="300"
         id="rect4927"
         style="fill:#0000ff;fill-rule:evenodd;stroke:none" />
      <rect
         y="1097.0796"
         x="963.65479"
         height="311.97906"
         width="100"
         id="rect4929"
         style="fill:#ffff00;fill-rule:evenodd;stroke:none"
         transform="matrix(1,0,-0.27444447,0.96160295,0,0)" />
    </g>
    <g
       transform="matrix(0,0.4186047,-0.4186047,0,1061.239,139.27838)"
       id="g4931">
      <rect
         style="fill:#0000ff;fill-rule:evenodd;stroke:none"
         id="rect4933"
         width="300"
         height="300"
         x="476.82538"
         y="1054.955" />
      <rect
         transform="matrix(1,0,-0.27444447,0.96160295,0,0)"
         style="fill:#ffff00;fill-rule:evenodd;stroke:none"
         id="rect4935"
         width="100"
         height="311.97906"
         x="963.65479"
         y="1097.0796" />
    </g>
    <g
       id="g4937"
       transform="matrix(0,-0.4186047,-0.4186047,0,784.95985,525.92296)">
      <rect
         y="1054.955"
         x="476.82538"
         height="300"
         width="300"
         id="rect4939"
         style="fill:#0000ff;fill-rule:evenodd;stroke:none" />
      <rect
         y="1097.0796"
         x="963.65479"
         height="311.97906"
         width="100"
         id="rect4941"
         style="fill:#ffff00;fill-rule:evenodd;stroke:none"
         transform="matrix(1,0,-0.27444447,0.96160295,0,0)" />
    </g>
    <path
       d="m 421.17348,653.41925 a 8.4451466,8.4451466 0 0 1 -9.35507,7.39818 8.4451466,8.4451466 0 0 1 -7.42377,-9.33479 8.4451466,8.4451466 0 0 1 9.31444,-7.44929 8.4451466,8.4451466 0 0 1 7.47475,9.29401"
       id="path4959"
       style="opacity:1;fill:#ff00ff;fill-opacity:1;fill-rule:nonzero;stroke:none;stroke-width:0.70866144;stroke-linecap:round;stroke-linejoin:miter;stroke-miterlimit:1;stroke-dasharray:none;stroke-opacity:1" />
  </g>
</svg>
